PathFileType	4	(X/Y/Z)	 s05c0303.trc
DataRate	CameraRate	NumFrames	NumMarkers	Units	OrigDataRate	OrigDataStartFrame	OrigNumFrames
200	200	6	48	mm	200	751	2000
Frame#	Time	racr			lacr			c7			jug			rlel			rdr			llel			ldr			s2			lic			ric			lasi			rasi			rpsi			lpsi			rgt			lgt			rth1			rth2			rth3			rth4			rlfc			rsh1			rsh2			rsh3			rsh4			rlmal			rcal			rtoe			rmt5			rmt1			lth1			lth2			lth4			lth3			llfc			lmfc			lsh1			lsh2			lsh3			lsh4			llmal			lcal			ltoe			lmt5			SBIKE			LBIKE			RBIKE			
		X1	Y1	Z1	X2	Y2	Z2	X3	Y3	Z3	X4	Y4	Z4	X5	Y5	Z5	X6	Y6	Z6	X7	Y7	Z7	X8	Y8	Z8	X9	Y9	Z9	X10	Y10	Z10	X11	Y11	Z11	X12	Y12	Z12	X13	Y13	Z13	X14	Y14	Z14	X15	Y15	Z15	X16	Y16	Z16	X17	Y17	Z17	X18	Y18	Z18	X19	Y19	Z19	X20	Y20	Z20	X21	Y21	Z21	X22	Y22	Z22	X23	Y23	Z23	X24	Y24	Z24	X25	Y25	Z25	X26	Y26	Z26	X27	Y27	Z27	X28	Y28	Z28	X29	Y29	Z29	X30	Y30	Z30	X31	Y31	Z31	X32	Y32	Z32	X33	Y33	Z33	X34	Y34	Z34	X35	Y35	Z35	X36	Y36	Z36	X37	Y37	Z37	X38	Y38	Z38	X39	Y39	Z39	X40	Y40	Z40	X41	Y41	Z41	X42	Y42	Z42	X43	Y43	Z43	X44	Y44	Z44	X45	Y45	Z45	X46	Y46	Z46	X47	Y47	Z47	X48	Y48	Z48	
751	3.7550	805.442072	1254.373525	-181.421536	774.407810	1237.311661	-479.492675	793.748529	1331.380052	-343.105785	715.269018	1181.922588	-320.305902	617.179681	1120.737060	5.245482	701.743948	917.692649	-63.820188	503.955290	1094.367799	-558.035070	677.973735	939.281941	-466.010462	204.733916	1291.231822	-226.504954	316.150003	1270.530156	-392.973395	372.965484	1253.458667	-113.513527	353.598725	1203.986797	-364.276811	381.190984	1182.562902	-146.539363	259.982135	1322.013337	-190.170117	246.833534	1333.283390	-275.132605	288.414183	1137.811178	-83.856065	229.834163	1199.806126	-413.632707	336.349690	1031.438555	-85.028288	383.307994	956.046305	-86.168816	385.819662	868.147094	-85.755574	416.087076	966.357833	-98.963381	417.535346	720.168988	-104.027409	320.631655	668.652397	-75.086070	267.545289	598.784209	-87.079879	189.397034	562.513790	-89.679179	286.927468	578.782013	-114.264100	83.919882	473.665884	-95.329634	22.052596	515.458669	-139.322099	134.452498	240.600699	-156.237875	70.687676	316.355431	-84.907469	NaN	NaN	NaN	299.170839	1073.867868	-446.700703	367.875835	1023.361253	-454.542539	398.473802	1043.379361	-442.989459	402.213716	939.777431	-461.390949	476.996552	808.716311	-437.688175	481.094761	794.856744	-327.992494	398.418092	701.368856	-451.135087	383.155628	615.767690	-438.752727	324.808923	548.656991	-430.028862	415.109859	603.938186	-420.635483	277.245306	442.511826	-416.301961	211.322971	413.528903	-370.896745	490.153138	323.825227	-398.240117	375.047681	324.143491	-454.387574	-166.915034	901.506145	-268.929436	-43.318292	85.182500	-473.966984	-51.347655	80.337208	-76.424657	
752	3.7600	805.192910	1255.981069	-179.973591	776.284916	1235.086093	-477.656852	794.173056	1331.216044	-342.183604	716.467929	1181.427176	-318.130255	616.355449	1120.726074	4.709112	701.387560	917.485874	-63.910742	505.243058	1094.295639	-559.332577	678.080530	939.174230	-466.268363	204.243581	1289.866670	-229.599998	317.262421	1267.210773	-395.216010	371.762235	1254.146651	-115.303183	354.803390	1200.967922	-365.447181	379.572028	1182.610164	-147.588025	258.960260	1321.369209	-193.104408	246.562502	1330.925337	-278.355275	288.252251	1138.176036	-83.852076	230.932320	1195.714659	-415.335783	336.799991	1032.053702	-84.194457	385.627739	957.790301	-84.406233	389.521386	869.859289	-83.861487	417.856050	968.590426	-97.498319	423.523432	722.960629	-102.495106	325.431075	674.139788	-74.103569	270.965340	605.471340	-85.666563	191.829747	570.585901	-89.139641	290.303755	584.439429	-112.465849	85.827662	484.170674	-95.443283	24.320259	526.482235	-139.869515	134.671030	250.850054	-155.693986	71.152197	327.120070	-84.609579	NaN	NaN	NaN	299.276995	1068.240141	-446.788559	367.230960	1016.272856	-452.582724	397.893986	1035.958037	-441.727391	399.851506	932.034860	-458.698747	472.129751	800.805360	-433.325526	474.271128	786.854186	-324.152911	394.894762	692.952175	-448.434484	380.554116	607.614876	-437.098228	323.242820	539.963828	-429.744508	412.411147	596.062741	-418.781870	276.867640	431.723161	-415.911043	211.047083	402.374223	-370.852120	489.876836	312.193796	-397.853249	374.859162	313.248153	-454.162668	-166.925752	901.469346	-268.927710	-43.322670	85.140564	-473.987875	-51.349396	80.321893	-76.452001	
753	3.7650	804.869885	1257.547042	-178.215907	778.349573	1232.932876	-475.584455	794.599298	1331.033616	-340.931250	717.795150	1181.131914	-315.812703	615.435172	1120.730997	4.483130	701.018972	917.326385	-64.003851	506.905864	1094.573736	-560.963933	678.190069	939.013048	-466.608798	204.012715	1288.118720	-233.101981	318.625786	1263.665181	-397.494366	370.523735	1254.790436	-117.176947	356.173360	1197.789844	-366.716212	379.106682	1182.902633	-147.241536	256.698430	1321.175758	-196.053809	246.475983	1328.467740	-281.790823	287.570237	1138.558248	-84.538208	232.349171	1191.456483	-417.325340	336.650825	1032.983155	-83.194116	387.568271	959.544123	-82.699370	393.157550	871.621222	-82.165256	419.683775	970.834334	-95.923156	429.702041	725.902303	-100.792081	330.585276	679.594225	-72.650974	274.138891	612.412785	-84.966733	194.936405	579.093600	-88.116504	293.819553	590.275250	-110.691422	88.255089	494.555190	-95.557648	27.344644	537.393675	-140.433296	135.516015	261.036159	-155.206105	72.268110	338.004911	-84.323837	NaN	NaN	NaN	299.505771	1062.287157	-446.920647	366.538126	1008.947783	-451.037659	397.420566	1028.115474	-440.448887	397.510018	924.004377	-455.952964	467.494013	792.645117	-428.631812	467.100318	778.651948	-320.263141	391.661990	684.761543	-446.303308	378.082131	599.148503	-435.249455	321.346533	530.993500	-428.879508	409.671458	587.873160	-416.290758	276.057149	421.147606	-415.436189	210.257281	391.965735	-370.780899	488.903089	300.444705	-397.546647	373.995774	302.530104	-453.902113	-166.931356	901.299455	-269.080207	-43.331221	85.129265	-473.993953	-51.353114	80.298523	-76.457146	
754	3.7700	804.477758	1258.949438	-176.163562	780.578971	1231.047098	-473.330123	795.079835	1330.923025	-339.553522	719.033435	1180.741517	-313.432892	614.034046	1120.567986	4.040584	700.739928	917.241130	-64.057449	509.027426	1095.100488	-562.845508	678.367304	938.856498	-466.967393	203.519094	1286.304175	-237.137138	320.179534	1259.948848	-399.950006	369.029530	1255.391805	-119.165909	357.669329	1194.455768	-367.997514	378.039529	1183.396087	-147.787236	255.621248	1320.287275	-199.592524	246.455719	1326.025406	-285.539617	286.667923	1138.988898	-85.182282	233.970490	1186.926195	-419.449026	337.193445	1033.606238	-81.976286	389.589976	961.251106	-80.800729	396.668854	873.445574	-80.575592	421.628644	973.129633	-94.020486	436.080733	729.209600	-98.868053	336.172849	685.228679	-71.168577	278.351464	619.134122	-83.673886	198.508227	587.643950	-87.239220	297.785008	596.438652	-108.903332	91.298921	504.924733	-95.736781	30.901447	548.297697	-140.838886	137.214883	271.212604	-154.623763	74.170561	348.605375	-84.069336	NaN	NaN	NaN	299.869962	1056.011332	-447.043496	365.856926	1001.297988	-449.459772	396.921714	1020.020611	-439.207316	395.120774	915.638701	-453.000737	462.441065	784.521444	-424.650454	460.146433	771.082237	-316.688944	388.587515	676.093843	-444.035616	375.645015	590.213120	-432.961160	319.352303	521.653465	-427.721484	406.806306	579.532662	-413.330828	274.829642	410.884606	-414.982838	209.085042	381.666857	-370.830878	487.306142	288.633305	-397.294625	372.477189	291.892549	-453.744984	-166.937607	901.261084	-269.189982	-43.339548	85.077073	-474.007332	-51.372572	80.292046	-76.462933	
755	3.7750	803.896480	1260.286488	-174.170827	782.981973	1229.302463	-470.841064	795.852874	1331.006603	-337.617071	720.342609	1180.341412	-310.886367	612.530180	1120.287562	3.548022	700.569223	917.362862	-63.871071	511.763051	1095.719331	-564.634372	678.627023	938.720629	-467.339902	202.612538	1284.958735	-241.074676	321.643556	1256.230659	-402.615313	367.423410	1256.082889	-121.299491	359.249603	1190.929186	-369.282259	376.679143	1183.805758	-148.720152	255.199460	1319.008712	-203.519425	246.347466	1323.698805	-289.384204	283.997104	1139.502238	-86.903191	236.111849	1182.380944	-421.911611	338.064628	1034.112032	-80.511388	391.808271	963.113888	-78.777543	400.822934	875.398389	-78.760661	423.710671	975.670630	-91.877420	442.642349	732.958063	-96.964026	342.091188	690.973674	-69.666652	283.050836	625.938117	-82.539988	202.701131	595.965735	-86.492466	302.300800	602.624970	-107.326496	94.946817	515.237819	-95.930642	34.996002	558.986289	-141.204207	139.570326	281.377022	-154.251853	76.883569	359.151412	-83.895516	NaN	NaN	NaN	300.287006	1049.594344	-447.308266	365.217221	993.396689	-447.904752	396.420896	1011.662808	-437.983507	392.545125	907.223181	-450.295067	457.257906	776.276757	-420.732800	452.607592	763.144319	-313.440214	385.426924	667.114021	-441.661532	373.064592	581.189966	-430.678875	317.434993	512.038878	-426.096464	403.643576	570.887119	-409.999975	273.064581	400.859992	-414.798646	207.308983	371.871070	-370.988929	485.021491	276.823683	-397.007837	370.356513	281.321458	-453.633600	-166.873575	901.243175	-269.199767	-43.340788	85.036193	-474.021046	-51.378239	80.271523	-76.481476	
756	3.7800	803.060740	1261.030456	-173.694483	785.495878	1227.840187	-468.023683	796.546874	1331.064809	-335.658055	721.707579	1180.106208	-308.259529	611.011648	1119.987281	3.108450	700.371258	917.410966	-63.785729	514.375111	1096.748120	-567.282692	679.041622	938.504613	-467.846478	201.972738	1283.636483	-245.693241	323.553780	1252.068547	-405.071790	365.612639	1256.743941	-123.442154	360.982434	1187.340875	-370.564813	375.226605	1184.206490	-149.757404	254.342656	1317.742902	-207.875092	246.426807	1321.188252	-293.646127	282.583703	1140.029442	-88.158838	238.162914	1177.495471	-424.227099	338.641623	1034.918654	-79.050130	394.143365	965.332509	-76.831102	405.153924	877.717019	-77.249150	425.893031	978.736303	-89.789465	449.348744	737.491020	-95.079099	348.692756	696.729469	-68.119227	288.432499	632.665682	-81.368555	207.548528	604.141943	-85.780294	307.143014	609.180144	-106.013037	99.193484	525.366673	-96.051754	39.574502	569.477783	-141.461824	142.733619	291.359879	-153.939407	80.222716	369.630029	-83.748123	NaN	NaN	NaN	300.806947	1043.150746	-447.711100	364.430601	985.445968	-446.709845	395.919514	1003.121973	-436.826275	389.821434	898.761195	-447.706603	451.687338	768.157849	-417.403061	445.219414	755.083597	-310.538849	382.022815	657.875990	-439.244892	370.090230	571.981889	-428.447476	314.843923	502.374887	-424.544340	400.194088	562.080326	-406.475289	270.785537	391.144178	-414.671757	204.986014	362.543891	-371.304827	482.085830	265.116853	-396.834797	367.591476	270.926145	-453.592036	-166.911389	901.230529	-269.215590	-43.350750	85.018940	-474.032902	-51.392375	80.273719	-76.506927	
